Coordinates
version=1
nRows=34
nColumns=38
inDegrees=no

Units are S.I. units (second, meters, Newtons, ...)
If the header above contains a line with 'inDegrees', this indicates whether rotational values are in degrees (yes) or radians (no).

endheader
time	pelvis_tilt	pelvis_list	pelvis_rotation	pelvis_tx	pelvis_ty	pelvis_tz	hip_flexion_r	hip_adduction_r	hip_rotation_r	knee_angle_r	ankle_angle_r	subtalar_angle_r	mtp_angle_r	hip_flexion_l	hip_adduction_l	hip_rotation_l	knee_angle_l	ankle_angle_l	subtalar_angle_l	mtp_angle_l	lumbar_extension	lumbar_bending	lumbar_rotation	arm_flex_r	arm_add_r	arm_rot_r	elbow_flex_r	pro_sup_r	wrist_flex_r	wrist_dev_r	arm_flex_l	arm_add_l	arm_rot_l	elbow_flex_l	pro_sup_l	wrist_flex_l	wrist_dev_l
1.66	-2.26017	1.50818	-2.44344	0.734668	0.857311	0.931843	-0.167078	-0.0200053	-0.333936	0.169169	0.236003	0	0	0.364771	-0.0847587	-0.468958	0.348683	0.0672239	0	0	-0.185954	-0.0142511	0.00921626	0.00128618	-0.364265	0.306577	0.846091	1.3733	0	0	-0.119114	-0.2788	0.486305	0.721175	1.08286	0	0
1.67	-2.14343	1.49965	-2.55851	0.733161	0.865276	0.930887	-0.173662	-0.0358363	-0.343304	0.17562	0.247638	0	0	0.322545	-0.0250622	-0.367809	0.186058	0.0220697	0	0	-0.189084	-0.0262964	0.00441995	0.00903216	-0.362344	0.306138	0.842341	1.37506	0	0	-0.111096	-0.279444	0.492179	0.714801	1.08253	0	0
1.68	-2.084	1.51168	-2.6155	0.732495	0.873989	0.927712	-0.174077	-0.0266496	-0.344511	0.176161	0.256242	0	0	0.353751	-0.0364657	-0.393405	0.186444	0.0581872	0	0	-0.180016	-0.0182536	0.00208231	0.0117529	-0.364178	0.309845	0.844537	1.36652	0	0	-0.108559	-0.279858	0.494337	0.711624	1.09626	0	0
1.69	-2.08519	1.50393	-2.61917	0.731866	0.883509	0.926615	-0.188608	-0.0369725	-0.347754	0.179336	0.266491	0	0	0.276376	0.011007	-0.239697	0	-0.0277082	0	0	-0.185157	-0.0268258	0.00407974	0.015637	-0.362284	0.307889	0.840957	1.37285	0	0	-0.104691	-0.280006	0.495355	0.705981	1.10874	0	0
1.7	-2.14823	1.50326	-2.55209	0.731583	0.891597	0.924744	-0.202297	-0.0323186	-0.345011	0.182001	0.272665	0	0	0.294765	0.00903955	-0.228568	0	-0.0193047	0	0	-0.192405	-0.0276832	0.0018692	0.0190728	-0.360135	0.306591	0.838813	1.37666	0	0	-0.098297	-0.283985	0.501664	0.705442	1.10351	0	0
1.71	-2.16053	1.50558	-2.53947	0.73123	0.900492	0.922537	-0.21128	-0.0302302	-0.345608	0.185651	0.281052	0	0	0.308297	0.00866396	-0.220344	0	-0.010714	0	0	-0.193303	-0.0276299	0.00123594	0.0222212	-0.35795	0.307058	0.835135	1.37484	0	0	-0.0944101	-0.286758	0.505428	0.703652	1.09621	0	0
1.72	-2.11637	1.51087	-2.5859	0.73016	0.910161	0.919904	-0.214846	-0.0298512	-0.347451	0.190724	0.289302	0	0	0.326847	0.00662414	-0.244335	0	0.0175609	0	0	-0.188443	-0.0253194	0.000248671	0.0252385	-0.35772	0.307946	0.832761	1.37581	0	0	-0.0935398	-0.28545	0.499344	0.698673	1.11746	0	0
1.73	-2.22742	1.505	-2.47557	0.730584	0.919328	0.918788	-0.234759	-0.0306345	-0.345834	0.194034	0.294617	0	0	0.32155	0.0107643	-0.210938	0	0.00283505	0	0	-0.199665	-0.0309699	0.00144223	0.0282796	-0.353085	0.309349	0.825909	1.37477	0	0	-0.0892182	-0.290129	0.499098	0.697459	1.11365	0	0
1.74	-2.27924	1.50211	-2.42689	0.730276	0.929352	0.917259	-0.248857	-0.0329503	-0.346757	0.199805	0.300525	0	0	0.320849	0.0129428	-0.205183	0	0.00717189	0	0	-0.204818	-0.0342011	0.0026025	0.0305562	-0.350044	0.310538	0.820029	1.37331	0	0	-0.0876172	-0.292937	0.49753	0.696581	1.10541	0	0
1.75	-2.31376	1.49961	-2.39707	0.729947	0.939759	0.915726	-0.260468	-0.0368058	-0.347935	0.208701	0.30684	0	0	0.31851	0.0152384	-0.198428	0	0.00951078	0	0	-0.208141	-0.0378006	0.00515115	0.0317378	-0.346784	0.310942	0.813521	1.37185	0	0	-0.0867284	-0.295263	0.495215	0.695296	1.09289	0	0
1.76	-2.33757	1.49682	-2.37904	0.729626	0.950538	0.914271	-0.270623	-0.0424805	-0.349354	0.220377	0.312883	0	0	0.31369	0.0180756	-0.190104	0	0.00963995	0	0	-0.210443	-0.0421783	0.00867378	0.031984	-0.3434	0.311293	0.806327	1.37046	0	0	-0.0865967	-0.297455	0.492525	0.693894	1.07678	0	0
1.77	-2.326	1.49461	-2.39748	0.729201	0.961655	0.912656	-0.27524	-0.0518628	-0.354876	0.239362	0.321893	0	0	0.309009	0.0223741	-0.183975	0	0.00903643	0	0	-0.209078	-0.0481422	0.0133015	0.0317089	-0.341214	0.317571	0.798009	1.35211	0	0	-0.0860982	-0.304374	0.509448	0.699598	0.972943	0	0
1.78	-2.31823	1.49586	-2.41232	0.728037	0.97343	0.911034	-0.281779	-0.0603464	-0.358079	0.250674	0.325822	0	0	0.317057	0.019401	-0.211503	0.0242586	0.0300226	0	0	-0.205088	-0.0494612	0.0161887	0.0301091	-0.339224	0.316231	0.791386	1.36659	0	0	-0.089947	-0.299238	0.485646	0.689603	1.03861	0	0
1.79	-2.34625	1.48633	-2.39402	0.728089	0.984881	0.910421	-0.294076	-0.0739945	-0.358254	0.269148	0.329091	0	0	0.287085	0.032291	-0.164246	0	-0.00652104	0	0	-0.210478	-0.0603758	0.0239996	0.0285858	-0.336194	0.324479	0.781805	1.343	0	0	-0.0898843	-0.306185	0.497831	0.695243	0.950268	0	0
1.8	-2.33907	1.48364	-2.40648	0.727266	0.996119	0.909135	-0.298342	-0.0840026	-0.358212	0.289436	0.330016	0	0	0.304311	0.0325443	-0.187755	0.0588334	0.00996865	0	0	-0.209075	-0.0663602	0.0281103	0.0257152	-0.332667	0.324076	0.771664	1.35471	0	0	-0.0911643	-0.307313	0.492679	0.693892	0.930479	0	0
1.81	-2.32726	1.48118	-2.42304	0.726161	1.00774	0.907913	-0.302083	-0.0945911	-0.358381	0.310423	0.329083	0	0	0.317979	0.0328526	-0.207858	0.108582	0.0171412	0	0	-0.206142	-0.072051	0.0313888	0.0219636	-0.3303	0.327772	0.761975	1.35379	0	0	-0.093967	-0.306798	0.48256	0.690966	0.928835	0	0
1.82	-2.33345	1.48713	-2.4193	0.725025	1.01967	0.906025	-0.30095	-0.0959395	-0.355266	0.33159	0.325072	0	0	0.365367	0.00970601	-0.288241	0.220717	0.0470874	0	0	-0.197185	-0.0697183	0.0339017	0.0162016	-0.328733	0.331833	0.753029	1.35444	0	0	-0.0983601	-0.306483	0.474792	0.689297	0.91976	0	0
1.83	-2.30108	1.47619	-2.46029	0.723824	1.03155	0.906149	-0.305179	-0.117749	-0.352405	0.358757	0.318381	0	0	0.332193	0.0331233	-0.244605	0.175438	-0.0150901	0	0	-0.198265	-0.083958	0.0391497	0.0148765	-0.325611	0.340548	0.737419	1.3522	0	0	-0.100218	-0.305654	0.466397	0.68591	0.903443	0	0
1.84	-2.29048	1.4713	-2.47446	0.722318	1.04386	0.905874	-0.307221	-0.131281	-0.350086	0.385222	0.306136	0	0	0.332295	0.0349249	-0.259337	0.199968	-0.0392248	0	0	-0.195481	-0.0914622	0.0408091	0.0106747	-0.322835	0.347603	0.724263	1.35178	0	0	-0.103666	-0.305346	0.459079	0.683567	0.899215	0	0
1.85	-2.30398	1.47639	-2.46308	0.721087	1.05632	0.904866	-0.302045	-0.13378	-0.34303	0.414731	0.289569	0	0	0.371704	0.00478567	-0.339673	0.308468	-0.0109099	0	0	-0.186913	-0.0893033	0.0421859	0.00543002	-0.320654	0.356469	0.71124	1.35088	0	0	-0.10952	-0.305023	0.449885	0.683684	0.894649	0	0
1.86	-2.29912	1.47271	-2.46995	0.719497	1.06872	0.905082	-0.298562	-0.146286	-0.337636	0.448616	0.269125	0	0	0.376499	0.000651049	-0.355147	0.35108	-0.00495231	0	0	-0.183707	-0.0953017	0.0424572	0.000942098	-0.317044	0.363286	0.697025	1.35117	0	0	-0.112779	-0.30535	0.444408	0.681976	0.892934	0	0
1.87	-2.28939	1.46728	-2.48024	0.717674	1.08119	0.905722	-0.292881	-0.161499	-0.334226	0.487391	0.241863	0	0	0.378783	0.00041875	-0.362928	0.390961	0.00530395	0	0	-0.18124	-0.102806	0.0408538	-0.00289113	-0.313021	0.371672	0.681163	1.35205	0	0	-0.115866	-0.305936	0.439422	0.680268	0.892251	0	0
1.88	-2.27726	1.46069	-2.49204	0.715586	1.0936	0.906774	-0.283877	-0.178969	-0.330522	0.531436	0.206475	0	0	0.376802	0.00429429	-0.365455	0.422954	0.0165422	0	0	-0.179549	-0.111002	0.0379958	-0.00638544	-0.309249	0.381578	0.665302	1.35179	0	0	-0.118225	-0.30674	0.436397	0.678557	0.892237	0	0
1.89	-2.25711	1.45467	-2.50993	0.71323	1.10593	0.908003	-0.269326	-0.197104	-0.32624	0.5811	0.163158	0	0	0.371663	0.0111398	-0.365761	0.445385	0.0280343	0	0	-0.176826	-0.118852	0.0332307	-0.0101543	-0.305295	0.391037	0.649947	1.35065	0	0	-0.120142	-0.308221	0.435942	0.677331	0.892439	0	0
1.9	-2.22118	1.4505	-2.54188	0.710626	1.11814	0.90911	-0.247265	-0.215121	-0.32043	0.635737	0.109676	0	0	0.365201	0.0202166	-0.364715	0.458274	0.0388751	0	0	-0.170986	-0.125724	0.0263644	-0.0123907	-0.306409	0.423569	0.638019	1.3044	0	0	-0.122463	-0.311197	0.440133	0.678005	0.886124	0	0
1.91	-2.18061	1.44757	-2.57911	0.707968	1.13001	0.910106	-0.219211	-0.232483	-0.310386	0.693502	0.0538153	0	0	0.356329	0.0306516	-0.363029	0.46204	0.0471457	0	0	-0.164248	-0.131543	0.0209761	-0.0169996	-0.304289	0.43228	0.627315	1.31046	0	0	-0.123583	-0.31391	0.443895	0.678858	0.887913	0	0
1.92	-2.12765	1.44592	-2.62863	0.705261	1.14176	0.910837	-0.18607	-0.248732	-0.297348	0.752253	-0.00802235	0	0	0.347656	0.0419977	-0.361858	0.461065	0.0542301	0	0	-0.154851	-0.136712	0.0155352	-0.0218419	-0.303341	0.443722	0.618647	1.31318	0	0	-0.124964	-0.317649	0.449696	0.681898	0.888789	0	0
1.93	-2.07316	1.4447	-2.67944	0.702616	1.15336	0.911446	-0.150703	-0.262815	-0.28173	0.810578	-0.0697433	0	0	0.338519	0.053407	-0.360535	0.45749	0.0603772	0	0	-0.144719	-0.14121	0.00976912	-0.026623	-0.303227	0.456805	0.612314	1.31368	0	0	-0.126497	-0.3228	0.457303	0.687544	0.888604	0	0
1.94	-2.02375	1.44348	-2.72618	0.700218	1.16462	0.912051	-0.113362	-0.274769	-0.263024	0.868669	-0.129494	0	0	0.329061	0.0637476	-0.359163	0.453342	0.0661784	0	0	-0.135375	-0.145298	0.00463849	-0.0305108	-0.303628	0.470562	0.608135	1.31246	0	0	-0.127532	-0.329086	0.465754	0.695628	0.887405	0	0
1.95	-1.98709	1.44166	-2.76119	0.698037	1.17554	0.912822	-0.07566	-0.2851	-0.242609	0.925636	-0.186261	0	0	0.318614	0.073274	-0.356258	0.449532	0.0721117	0	0	-0.128273	-0.149121	-0.000128791	-0.0332539	-0.30386	0.483078	0.605229	1.31056	0	0	-0.127845	-0.336068	0.473915	0.705232	0.88563	0	0
1.96	-1.97056	1.43937	-2.77636	0.696047	1.18621	0.913894	-0.0401158	-0.292993	-0.222148	0.979128	-0.237058	0	0	0.30631	0.0817228	-0.35145	0.446611	0.078076	0	0	-0.124599	-0.152214	-0.00519067	-0.0347673	-0.303975	0.494362	0.603355	1.30923	0	0	-0.12725	-0.343002	0.479832	0.714963	0.883012	0	0
1.97	-1.98082	1.4392	-2.76494	0.69308	1.1968	0.915238	-0.00931403	-0.310045	-0.202823	1.02318	-0.26917	0	0	0.292702	0.089702	-0.343112	0.445454	0.0827081	0	0	-0.124302	-0.14979	-0.0106932	-0.0351093	-0.305782	0.503667	0.601513	1.30936	0	0	-0.125764	-0.34766	0.484088	0.725087	0.88013	0	0
1.98	-2.00703	1.43783	-2.7379	0.691267	1.20695	0.916895	0.0178686	-0.31374	-0.1855	1.06436	-0.285892	0	0	0.275946	0.0938825	-0.337606	0.443749	0.0883959	0	0	-0.127744	-0.149191	-0.0158844	-0.0343192	-0.306204	0.511654	0.600963	1.31106	0	0	-0.122672	-0.353701	0.488661	0.733702	0.879695	0	0
1.99	-2.05099	1.43592	-2.69329	0.689621	1.217	0.91886	0.0416373	-0.316264	-0.170706	1.10425	-0.27333	0	0	0.255069	0.0974393	-0.332277	0.439089	0.0935033	0	0	-0.134199	-0.147858	-0.0215311	-0.0328107	-0.306948	0.521384	0.601682	1.30936	0	0	-0.119676	-0.35962	0.490791	0.742514	0.893022	0	0
